# xmcd
#
# Track frame offsets:
# 150
# 12529
# 23261
# 35002
# 44928
# 53244
# 74456
# 87347
# 103768
# 114865
# 135656
# 153878
# 176522
# 197461
#
# Disc length: 2894 seconds
#
#
# Revision: 0
# Processed by: cddbd v1.5.2PL0 Copyright (c) Steve Scherf et al.
# Submitted via: FreeRIP 2.941 
#
DISCID=b70b4c0e
DTITLE=RITA PAVONE - Voces de Italia
DYEAR=2004
DGENRE=Italiano
TTITLE0=Come te non ce nessuno
TTITLE1=Che mi importa del mondo
TTITLE2=Lui
TTITLE3=La partita di pallone
TTITLE4=Viva la papa con il pomodoro
TTITLE5=Solo tu
TTITLE6=Fortissimo
TTITLE7=Cuore
TTITLE8=Ahi ahi ragazzo
TTITLE9=L' amore mio
TTITLE10=Il ballo del mattone
TTITLE11=Datemi un martello (dance version)
TTITLE12=La partita di pallone (dance version)
TTITLE13=Geghege (dance version)
EXTD=
EXTT0=
EXTT1=
EXTT2=
EXTT3=
EXTT4=
EXTT5=
EXTT6=
EXTT7=
EXTT8=
EXTT9=
EXTT10=
EXTT11=
EXTT12=
EXTT13=
PLAYORDER=
